<svg xmlns="http://www.w3.org/2000/svg" xmlns:xlink="http://www.w3.org/1999/xlink" width="1600" height="1600" version="1.1" viewBox="0 0 1600 1600"><title>Feature</title><defs><rect id="path-1" width="1032.847" height="1172.556" x="0" y="0"/><filter id="filter-3" width="103.1%" height="102.7%" x="-1.5%" y="-1.2%" filterUnits="objectBoundingBox"><feOffset dx="0" dy="2" in="SourceAlpha" result="shadowOffsetOuter1"/><feGaussianBlur in="shadowOffsetOuter1" result="shadowBlurOuter1" stdDeviation="5"/><feColorMatrix in="shadowBlurOuter1" type="matrix" values="0 0 0 0 0 0 0 0 0 0 0 0 0 0 0 0 0 0 0.202005026 0"/></filter></defs><g id="Feature" fill="none" fill-rule="evenodd" stroke="none" stroke-width="1"><g id="Group-5" transform="translate(143.000000, 214.000000)"><g id="Group-2" transform="translate(242.000000, 0.000000)"><g id="Rectangle"><mask id="mask-2" fill="#fff"><use xlink:href="#path-1"/></mask><g id="Mask" fill-rule="nonzero"><use fill="#000" fill-opacity="1" filter="url(#filter-3)" xlink:href="#path-1"/><use fill="#1C1B1B" xlink:href="#path-1"/></g><rect width="1061" height="39" x="-11" y="-8" fill="#585555" mask="url(#mask-2)"/></g><g id="Group" fill="#FFF" fill-rule="nonzero" transform="translate(12.000000, 10.000000)"><circle id="Oval" cx="5.988" cy="5.988" r="5.988"/><circle id="Oval" cx="23.95" cy="5.988" r="5.988"/><circle id="Oval" cx="41.913" cy="5.988" r="5.988"/></g><rect id="Rectangle" width="924.281" height="458.693" x="57.285" y="195.592" fill="#585555" fill-rule="nonzero" opacity=".997"/><rect id="Rectangle" width="513" height="3" x="59.982" y="708.523" fill="#585555" fill-rule="nonzero"/><rect id="Rectangle" width="198" height="3" x="59.982" y="763.409" fill="#585555" fill-rule="nonzero" opacity=".76"/><rect id="Rectangle" width="879" height="3" x="59.982" y="818.294" fill="#585555" fill-rule="nonzero"/><rect id="Rectangle" width="842" height="3" x="59.982" y="873.18" fill="#585555" fill-rule="nonzero"/><rect id="Rectangle" width="908" height="3" x="59.982" y="928.066" fill="#585555" fill-rule="nonzero"/><rect id="Rectangle" width="928.066" height="3" x="54.886" y="982.951" fill="#585555" fill-rule="nonzero"/><rect id="Rectangle" width="928.066" height="3" x="54.886" y="1032.847" fill="#585555" fill-rule="nonzero"/><rect id="Rectangle" width="598.752" height="3" x="54.886" y="1087.733" fill="#585555" fill-rule="nonzero"/></g><g id="Phone" transform="translate(0.000000, 480.000000)"><rect id="Rectangle" width="336.456" height="573" x="1.5" y="1.5" fill="#1C1B1B" stroke="#585555" stroke-width="3" rx="5"/><rect id="Rectangle" width="249.675" height="404" x="44.89" y="55.22" fill="#585555" stroke="#1C1B1B"/><g id="Group-4" transform="translate(169.500000, 257.500000) rotate(-180.000000) translate(-169.500000, -257.500000) translate(107.000000, 195.000000)"><path id="Fill-4" fill="#1C1B1B" d="M0,61.56 C41.3983854,61.56 82.8,61.56 124.2,61.56 L124.2,46.44 C82.8,46.44 41.3983854,46.44 0,46.44 L0,61.56"/><path id="Fill-5" fill="#0C8" d="M0,92.88 C41.3983854,92.88 82.8,92.88 124.2,92.88 L124.2,77.76 C82.8,77.76 41.3983854,77.76 0,77.76 L0,92.88"/><path id="Fill-6" fill="#1C1B1B" d="M0,124.2 L124.2,124.2 L124.2,109.08 C82.8,109.08 41.3983854,109.08 0,109.08 L0,124.2"/><path id="Fill-7" fill="#0C8" d="M0,31.32 C41.3983854,31.32 82.8,31.32 124.2,31.32 L124.2,0 L0,0 L0,31.32"/></g><rect id="Rectangle" width="108.8" height="5" x="115.147" y="509" fill="#585555" fill-rule="nonzero" opacity=".76"/></g></g><g id="Group-6" transform="translate(892.000000, 641.000000) rotate(-90.000000) translate(-892.000000, -641.000000) translate(781.000000, 530.000000)"><polygon id="Fill-4" fill="#09F" points="165.6 221.4 221.4 221.4 221.4 165.6 165.6 165.6"/><polyline id="Fill-5" fill="#1C1B1B" points="109.8 221.4 109.8 166.499 54.899 166.499 54.899 111.6 0 111.6 0 221.4 109.8 221.4"/><polygon id="Fill-6" fill="#09F" points="0 55.8 55.8 55.8 55.8 0 0 0"/><polygon id="Fill-7" fill="#1C1B1B" points="111.6 109.8 221.4 109.8 221.4 0 111.6 0"/></g></g></svg>