<svg xmlns="http://www.w3.org/2000/svg" xmlns:xlink="http://www.w3.org/1999/xlink" width="1400" height="1282" version="1.1" viewBox="0 0 1400 1282"><title>Feature</title><g id="Feature" fill="none" fill-rule="evenodd" stroke="none" stroke-width="1"><rect id="Rectangle" width="856" height="749" x="266.5" y="266.5" stroke="#1C1B1B" stroke-width="5"/><rect id="Rectangle" width="426" height="749" x="696.5" y="266.5" stroke="#1C1B1B" stroke-width="5"/><rect id="Rectangle" width="856" height="372" x="266.5" y="643.5" stroke="#1C1B1B" stroke-width="5"/><g id="Group-2" transform="translate(991.351562, 503.000000)"><rect id="Rectangle" width="275.2" height="275.2" x=".4" y=".4" fill="#1C1B1B" stroke="#585555" stroke-width=".8" rx="3" transform="translate(138.000000, 138.000000) rotate(-90.000000) translate(-138.000000, -138.000000)"/><g id="Group-6" transform="translate(138.500000, 138.500000) rotate(-90.000000) translate(-138.500000, -138.500000) translate(77.000000, 77.000000)"><polygon id="Fill-4" fill="#09F" points="92 123 123 123 123 92 92 92"/><polyline id="Fill-5" fill="#585555" points="61 123 61 92.499 30.499 92.499 30.499 62 0 62 0 123 61 123"/><polygon id="Fill-6" fill="#09F" points="0 31 31 31 31 0 0 0"/><polygon id="Fill-7" fill="#585555" points="62 61 123 61 123 0 62 0"/></g></g><g id="Group-5" transform="translate(132.000000, 504.804687)"><rect id="Rectangle" width="276" height="276" x="0" y="0" fill="#1C1B1B" rx="3" transform="translate(138.000000, 138.000000) rotate(-270.000000) translate(-138.000000, -138.000000)"/><path id="Fill-19" fill="#0C8" d="M140,76.1953125 L109.970102,76.1953125 C99.9780745,86.1843498 89.9890373,96.1763769 80,106.165414 L80,136.195313 C81.7939007,134.401412 138.176201,78.0161217 140,76.1953125"/><path id="Fill-20" fill="#585555" d="M170.011965,77.1953125 C169.829494,77.4286359 80.0209393,167.186339 80,167.204286 L80,197.195313 C84.9685911,192.229713 195.121149,82.0711725 200,77.1953125 L170.011965,77.1953125 Z"/><path id="Fill-21" fill="#0C8" d="M110,198.195313 L140.032891,198.195313 C160.021928,178.205612 180.010964,158.215912 200,138.226212 L200,108.195313 C195.386225,112.80625 114.589853,193.605307 110,198.195313"/><path id="Fill-22" fill="#585555" d="M171,198.195313 L200.979065,198.195313 C200.985046,198.189332 200.991028,198.183352 201,198.174382 L201,168.195313 C200.862426,168.299967 171.071777,198.108599 171,198.195313"/></g><g id="Group" fill="#1C1B1B" stroke="#585555" stroke-width=".8" transform="translate(695.351562, 643.000000) rotate(-315.000000) translate(-695.351562, -643.000000) translate(557.351562, 505.000000)"><rect id="Rectangle" width="275.2" height="275.2" x=".4" y=".4" rx="3"/></g><g id="Group-3" fill="#FFF" transform="translate(696.464466, 650.277129) rotate(-315.000000) translate(-696.464466, -650.277129) translate(615.964466, 569.777129)"><polyline id="Fill-313" points="40.169 .632 .169 40.632 .169 .632 40.169 .632" opacity=".8"/><polyline id="Fill-314" points="80.169 .632 40.169 40.632 40.169 .632 80.169 .632"/><polyline id="Fill-315" points="120.169 .632 80.169 40.632 80.169 .632 120.169 .632" opacity=".8"/><polyline id="Fill-316" points="160.169 .632 120.169 40.632 120.169 .632 160.169 .632"/><polyline id="Fill-317" points="40.169 40.632 .169 80.632 .169 40.632 40.169 40.632" opacity=".8"/><polyline id="Fill-318" points="80.169 40.632 40.169 80.632 40.169 40.632 80.169 40.632"/><polyline id="Fill-319" points="120.169 40.632 80.169 80.632 80.169 40.632 120.169 40.632" opacity=".8"/><polyline id="Fill-320" points="160.169 40.632 120.169 80.632 120.169 40.632 160.169 40.632"/><polyline id="Fill-321" points="40.169 80.632 .169 120.632 .169 80.632 40.169 80.632" opacity=".8"/><polyline id="Fill-322" points="80.169 80.632 40.169 120.632 40.169 80.632 80.169 80.632"/><polyline id="Fill-323" points="120.169 80.632 80.169 120.632 80.169 80.632 120.169 80.632" opacity=".8"/><polyline id="Fill-324" points="160.169 80.632 120.169 120.632 120.169 80.632 160.169 80.632"/><polyline id="Fill-325" points="40.169 120.632 .169 160.632 .169 120.632 40.169 120.632" opacity=".8"/><polyline id="Fill-326" points="80.169 120.632 40.169 160.632 40.169 120.632 80.169 120.632"/><polyline id="Fill-327" points="120.169 120.632 80.169 160.632 80.169 120.632 120.169 120.632" opacity=".8"/><polyline id="Fill-328" points="160.169 120.632 120.169 160.632 120.169 120.632 160.169 120.632"/></g><g id="Group-2" transform="translate(991.703125, 137.000000)"><rect id="Rectangle" width="275.2" height="275.2" x=".4" y=".4" fill="#1C1B1B" stroke="#585555" stroke-width=".8" rx="3" transform="translate(138.000000, 138.000000) rotate(-90.000000) translate(-138.000000, -138.000000)"/><g id="Group-6" transform="translate(138.500000, 138.500000) rotate(-180.000000) translate(-138.500000, -138.500000) translate(77.000000, 77.000000)"><polygon id="Fill-4" fill="#585555" points="92 123 123 123 123 92 92 92"/><polyline id="Fill-5" fill="#F36" points="61 123 61 92.499 30.499 92.499 30.499 62 0 62 0 123 61 123"/><polygon id="Fill-6" fill="#585555" points="0 31 31 31 31 0 0 0"/><polygon id="Fill-7" fill="#585555" points="62 61 123 61 123 0 62 0"/></g></g><g id="Group-5" transform="translate(132.351563, 138.804687)"><rect id="Rectangle" width="276" height="276" x="0" y="0" fill="#1C1B1B" rx="3" transform="translate(138.000000, 138.000000) rotate(-270.000000) translate(-138.000000, -138.000000)"/><g id="Group-3" transform="translate(76.351562, 76.195313)"><polyline id="Fill-4" fill="#F36" points="59 60 59 91 90 91 90 122 121 122 121 60 59 60" transform="translate(90.000000, 91.000000) rotate(-270.000000) translate(-90.000000, -91.000000)"/><polyline id="Fill-5" fill="#585555" points="61.499 30.75 30.749 30.75 30.749 0 0 0 0 123 123 123 123 92.25 92.25 92.25 92.25 61.501 61.499 61.501 61.499 30.75" transform="translate(61.500000, 61.500000) rotate(-270.000000) translate(-61.500000, -61.500000)"/></g></g><g id="Group" transform="translate(556.703125, 137.000000)"><rect id="Rectangle" width="275.2" height="275.2" x=".4" y=".4" fill="#1C1B1B" stroke="#585555" stroke-width=".8" rx="3"/><g id="Group-4" transform="translate(138.500000, 138.500000) rotate(-180.000000) translate(-138.500000, -138.500000) translate(76.000000, 76.000000)"><path id="Fill-4" fill="#585555" d="M0,61.56 C41.3983854,61.56 82.8,61.56 124.2,61.56 L124.2,46.44 C82.8,46.44 41.3983854,46.44 0,46.44 L0,61.56"/><path id="Fill-5" fill="#0C8" d="M0,92.88 C41.3983854,92.88 82.8,92.88 124.2,92.88 L124.2,77.76 C82.8,77.76 41.3983854,77.76 0,77.76 L0,92.88"/><path id="Fill-6" fill="#585555" d="M0,124.2 L124.2,124.2 L124.2,109.08 C82.8,109.08 41.3983854,109.08 0,109.08 L0,124.2"/><path id="Fill-7" fill="#0C8" d="M0,31.32 C41.3983854,31.32 82.8,31.32 124.2,31.32 L124.2,0 L0,0 L0,31.32"/></g></g><g id="Group-2" transform="translate(991.703125, 867.000000)"><rect id="Rectangle" width="275.2" height="275.2" x=".4" y=".4" fill="#1C1B1B" stroke="#585555" stroke-width=".8" rx="3" transform="translate(138.000000, 138.000000) rotate(-90.000000) translate(-138.000000, -138.000000)"/><g id="Group-6" transform="translate(138.500000, 138.500000) rotate(-90.000000) translate(-138.500000, -138.500000) translate(77.000000, 77.000000)"><polygon id="Fill-4" fill="#09F" points="92 123 123 123 123 92 92 92"/><polyline id="Fill-5" fill="#585555" points="61 123 61 92.499 30.499 92.499 30.499 62 0 62 0 123 61 123"/><polygon id="Fill-6" fill="#09F" points="0 31 31 31 31 0 0 0"/><polygon id="Fill-7" fill="#585555" points="62 61 123 61 123 0 62 0"/></g><g id="Group-6" fill="#09F" transform="translate(138.500000, 138.500000) rotate(-360.000000) translate(-138.500000, -138.500000) translate(77.000000, 77.000000)"><polygon id="Fill-4" points="92 123 123 123 123 92 92 92"/><polygon id="Fill-6" points="0 31 31 31 31 0 0 0"/></g></g><g id="Group-5" transform="translate(132.351563, 868.804687)"><rect id="Rectangle" width="276" height="276" x="0" y="0" fill="#1C1B1B" rx="3" transform="translate(138.000000, 138.000000) rotate(-270.000000) translate(-138.000000, -138.000000)"/><g id="Group-4" transform="translate(138.148437, 137.695313) rotate(-180.000000) translate(-138.148437, -137.695313) translate(75.648437, 75.195313)"><path id="Fill-4" fill="#585555" d="M0,61.56 C41.3983854,61.56 82.8,61.56 124.2,61.56 L124.2,46.44 C82.8,46.44 41.3983854,46.44 0,46.44 L0,61.56"/><path id="Fill-5" fill="#09F" d="M0,92.88 C41.3983854,92.88 82.8,92.88 124.2,92.88 L124.2,77.76 C82.8,77.76 41.3983854,77.76 0,77.76 L0,92.88"/><path id="Fill-6" fill="#585555" d="M0,124.2 L124.2,124.2 L124.2,109.08 C82.8,109.08 41.3983854,109.08 0,109.08 L0,124.2"/><path id="Fill-7" fill="#09F" d="M0,31.32 C41.3983854,31.32 82.8,31.32 124.2,31.32 L124.2,0 L0,0 L0,31.32"/></g></g><g id="Group" transform="translate(556.703125, 867.000000)"><rect id="Rectangle" width="275.2" height="275.2" x=".4" y=".4" fill="#1C1B1B" stroke="#585555" stroke-width=".8" rx="3"/><g id="Group-4" transform="translate(138.500000, 138.500000) rotate(-90.000000) translate(-138.500000, -138.500000) translate(76.000000, 76.000000)"><path id="Fill-4" fill="#585555" d="M0,61.56 C41.3983854,61.56 82.8,61.56 124.2,61.56 L124.2,46.44 C82.8,46.44 41.3983854,46.44 0,46.44 L0,61.56"/><path id="Fill-5" fill="#0C8" d="M0,92.88 C41.3983854,92.88 82.8,92.88 124.2,92.88 L124.2,77.76 C82.8,77.76 41.3983854,77.76 0,77.76 L0,92.88"/><path id="Fill-6" fill="#585555" d="M0,124.2 L124.2,124.2 L124.2,109.08 C82.8,109.08 41.3983854,109.08 0,109.08 L0,124.2"/><path id="Fill-7" fill="#0C8" d="M0,31.32 C41.3983854,31.32 82.8,31.32 124.2,31.32 L124.2,0 L0,0 L0,31.32"/></g></g></g></svg>