<svg xmlns="http://www.w3.org/2000/svg" xmlns:xlink="http://www.w3.org/1999/xlink" width="1600" height="1600" version="1.1" viewBox="0 0 1600 1600"><title>Hero Minimal Dark</title><defs><rect id="path-1" width="1032.847" height="1172.556" x="0" y="0"/><filter id="filter-3" width="103.1%" height="102.7%" x="-1.5%" y="-1.2%" filterUnits="objectBoundingBox"><feOffset dx="0" dy="2" in="SourceAlpha" result="shadowOffsetOuter1"/><feGaussianBlur in="shadowOffsetOuter1" result="shadowBlurOuter1" stdDeviation="5"/><feColorMatrix in="shadowBlurOuter1" type="matrix" values="0 0 0 0 0 0 0 0 0 0 0 0 0 0 0 0 0 0 0.202005026 0"/></filter><path id="path-4" d="M232.2,123 L132,178.8 L29.8,123 C26,120.8 21,122.4 19,126.2 C16.8,130 18.4,135 22.2,137 L128.2,195 C130.6,196.4 133.6,196.4 136,195 L240,137 C243.8,134.8 245.2,130 243,126.2 C240.8,122.2 236,120.8 232.2,123 L232.2,123 Z M42.2,86 L132,35.2 L232,93 C235.8,95.2 240.8,93.8 243,90 C245.2,86.2 243.8,81.2 240,79 L136,19 C133.6,17.6 130.6,17.6 128,19 L22,79 C16.6,82 16.6,89.8 22,93 L128,153 C131.8,155.2 136.8,153.8 139,150 C141.2,146.2 139.8,141.2 136,139 L42.2,86 Z M1,128 L1,88 C0.2,78.8 4.4,69.4 13.6,64.2 L119.6,4.2 C127.4,-0.2 136.8,-0.2 144.4,4.4 L248.4,64.4 C257,69.4 261.6,78.8 260.8,88 L260.8,128 C261.6,137.4 256.8,147 248,151.8 L144,209.8 C136.4,214 127.4,214 119.8,209.8 L13.8,151.8 C5,147 0.4,137.6 1,128 Z"/><polygon id="path-6" points="0 0 1440 0 1440 1024 0 1024"/><rect id="path-8" width="1032.847" height="1172.556" x="0" y="0"/><filter id="filter-10" width="103.3%" height="102.9%" x="-1.6%" y="-1.3%" filterUnits="objectBoundingBox"><feMorphology in="SourceAlpha" operator="dilate" radius="1" result="shadowSpreadOuter1"/><feOffset dx="0" dy="2" in="shadowSpreadOuter1" result="shadowOffsetOuter1"/><feGaussianBlur in="shadowOffsetOuter1" result="shadowBlurOuter1" stdDeviation="5"/><feComposite in="shadowBlurOuter1" in2="SourceAlpha" operator="out" result="shadowBlurOuter1"/><feColorMatrix in="shadowBlurOuter1" type="matrix" values="0 0 0 0 0 0 0 0 0 0 0 0 0 0 0 0 0 0 0.202005026 0"/></filter><path id="path-11" d="M232.2,123 L132,178.8 L29.8,123 C26,120.8 21,122.4 19,126.2 C16.8,130 18.4,135 22.2,137 L128.2,195 C130.6,196.4 133.6,196.4 136,195 L240,137 C243.8,134.8 245.2,130 243,126.2 C240.8,122.2 236,120.8 232.2,123 L232.2,123 Z M42.2,86 L132,35.2 L232,93 C235.8,95.2 240.8,93.8 243,90 C245.2,86.2 243.8,81.2 240,79 L136,19 C133.6,17.6 130.6,17.6 128,19 L22,79 C16.6,82 16.6,89.8 22,93 L128,153 C131.8,155.2 136.8,153.8 139,150 C141.2,146.2 139.8,141.2 136,139 L42.2,86 Z M1,128 L1,88 C0.2,78.8 4.4,69.4 13.6,64.2 L119.6,4.2 C127.4,-0.2 136.8,-0.2 144.4,4.4 L248.4,64.4 C257,69.4 261.6,78.8 260.8,88 L260.8,128 C261.6,137.4 256.8,147 248,151.8 L144,209.8 C136.4,214 127.4,214 119.8,209.8 L13.8,151.8 C5,147 0.4,137.6 1,128 Z"/><polygon id="path-13" points="0 0 1440 0 1440 1024 0 1024"/></defs><g id="Hero-Minimal-Dark" fill="none" fill-rule="evenodd" stroke="none" stroke-width="1"><g id="Group-2" transform="translate(114.000000, 95.000000)"><g id="Rectangle"><mask id="mask-2" fill="#fff"><use xlink:href="#path-1"/></mask><g id="Mask" fill-rule="nonzero"><use fill="#000" fill-opacity="1" filter="url(#filter-3)" xlink:href="#path-1"/><use fill="#1C1B1B" xlink:href="#path-1"/></g><rect width="1061" height="39" x="-11" y="-8" fill="#585555" mask="url(#mask-2)"/></g><g id="Group" fill="#FFF" fill-rule="nonzero" transform="translate(12.000000, 10.000000)"><circle id="Oval" cx="5.988" cy="5.988" r="5.988"/><circle id="Oval" cx="23.95" cy="5.988" r="5.988"/><circle id="Oval" cx="41.913" cy="5.988" r="5.988"/></g><rect id="Rectangle" width="924.281" height="458.693" x="57.285" y="195.592" fill="#323131" fill-rule="nonzero" opacity=".486"/><rect id="Rectangle" width="513" height="3" x="59.982" y="708.523" fill="#585555" fill-rule="nonzero"/><rect id="Rectangle" width="198" height="3" x="59.982" y="763.409" fill="#585555" fill-rule="nonzero" opacity=".76"/><rect id="Rectangle" width="879" height="3" x="59.982" y="818.294" fill="#585555" fill-rule="nonzero"/><rect id="Rectangle" width="842" height="3" x="59.982" y="873.18" fill="#585555" fill-rule="nonzero"/><rect id="Rectangle" width="908" height="3" x="59.982" y="928.066" fill="#585555" fill-rule="nonzero"/><rect id="Rectangle" width="928.066" height="3" x="54.886" y="982.951" fill="#585555" fill-rule="nonzero"/><rect id="Rectangle" width="928.066" height="3" x="54.886" y="1032.847" fill="#585555" fill-rule="nonzero"/><rect id="Rectangle" width="598.752" height="3" x="54.886" y="1087.733" fill="#585555" fill-rule="nonzero"/><g id="Clipped" transform="translate(386.000000, 324.000000)"><mask id="mask-5" fill="#fff"><use xlink:href="#path-4"/></mask><g mask="url(#mask-5)"><g transform="translate(-106.000000, -588.000000)"><mask id="mask-7" fill="#fff"><use xlink:href="#path-6"/></mask><polygon id="Path" fill="#1C1B1B" fill-rule="nonzero" stroke="none" points="102 584 372 584 372 806 102 806" mask="url(#mask-7)"/></g></g></g></g><g id="Group-2" transform="translate(454.000000, 332.000000)"><g id="Rectangle"><mask id="mask-9" fill="#fff"><use xlink:href="#path-8"/></mask><g id="Mask" fill-rule="nonzero"><use fill="#000" fill-opacity="1" filter="url(#filter-10)" xlink:href="#path-8"/><use fill="#1C1B1B" stroke="#585555" stroke-width="2" xlink:href="#path-8"/></g><rect width="1061" height="39" x="-11" y="-8" fill="#585555" mask="url(#mask-9)"/></g><g id="Group" fill="#FFF" fill-rule="nonzero" transform="translate(12.000000, 10.000000)"><circle id="Oval" cx="5.988" cy="5.988" r="5.988"/><circle id="Oval" cx="23.95" cy="5.988" r="5.988"/><circle id="Oval" cx="41.913" cy="5.988" r="5.988"/></g><rect id="Rectangle" width="924.281" height="458.693" x="57.285" y="195.592" fill="#323131" fill-rule="nonzero"/><rect id="Rectangle" width="252.111" height="239.501" x="57" y="706" fill="#323131" fill-rule="nonzero"/><rect id="Rectangle" width="349.272" height="3" x="349.272" y="708.523" fill="#585555" fill-rule="nonzero"/><rect id="Rectangle" width="134.719" height="3" x="349.272" y="763.409" fill="#585555" fill-rule="nonzero" opacity=".76"/><rect id="Rectangle" width="598.752" height="3" x="349.272" y="818.294" fill="#585555" fill-rule="nonzero"/><rect id="Rectangle" width="573.804" height="3" x="349.272" y="873.18" fill="#585555" fill-rule="nonzero"/><rect id="Rectangle" width="618.71" height="3" x="349.272" y="928.066" fill="#585555" fill-rule="nonzero"/><rect id="Rectangle" width="928.066" height="3" x="54.886" y="982.951" fill="#585555" fill-rule="nonzero"/><rect id="Rectangle" width="928.066" height="3" x="54.886" y="1032.847" fill="#585555" fill-rule="nonzero"/><rect id="Rectangle" width="598.752" height="3" x="54.886" y="1087.733" fill="#585555" fill-rule="nonzero"/><g id="Clipped" transform="translate(386.000000, 324.000000)"><polygon id="Path" fill="#FFF" points="133 5 259 88 226.13 109.652 259 130 133 208 7 130 39.87 109.652 7 88"/><mask id="mask-12" fill="#fff"><use xlink:href="#path-11"/></mask><g mask="url(#mask-12)"><g transform="translate(-106.000000, -588.000000)"><mask id="mask-14" fill="#fff"><use xlink:href="#path-13"/></mask><polygon id="Path" fill="#3EB0FD" fill-rule="nonzero" stroke="none" points="102 584 372 584 372 806 102 806" mask="url(#mask-14)"/></g></g></g></g></g></svg>