<svg xmlns="http://www.w3.org/2000/svg" xmlns:xlink="http://www.w3.org/1999/xlink" width="96" height="96" version="1.1" viewBox="0 0 96 96"><title>icon</title><g id="Page-1" fill="none" fill-rule="evenodd" stroke="none" stroke-width="1"><g id="icon"><circle id="Oval" cx="48" cy="48" r="48" fill="#7975F4"/><g id="mouse" fill="#FFF" fill-rule="nonzero" transform="translate(22.000000, 22.000000)"><path id="Shape" d="M25.6,51.2526 C19.0571,51.2526 13.734,45.9296 13.734,39.3866 L13.734,25.7051 C13.734,19.1622 19.057,13.8392 25.6,13.8392 C32.143,13.8392 37.466,19.1622 37.466,25.7051 L37.466,39.3865 C37.466,45.9295 32.1429,51.2526 25.6,51.2526 L25.6,51.2526 Z M25.6,16.8392 C20.7113,16.8392 16.734,20.8164 16.734,25.7051 L16.734,39.3865 C16.734,44.2753 20.7112,48.2525 25.6,48.2525 C30.4888,48.2525 34.466,44.2753 34.466,39.3865 L34.466,25.7051 C34.466,20.8165 30.4887,16.8392 25.6,16.8392 Z"/><path id="Shape" d="M25.6,51.2526 C19.0571,51.2526 13.734,45.9296 13.734,39.3866 L13.734,25.7051 C13.734,19.1622 19.057,13.8392 25.6,13.8392 C32.143,13.8392 37.466,19.1622 37.466,25.7051 L37.466,39.3865 C37.466,45.9295 32.1429,51.2526 25.6,51.2526 L25.6,51.2526 Z M25.6,16.8392 C20.7113,16.8392 16.734,20.8164 16.734,25.7051 L16.734,39.3865 C16.734,44.2753 20.7112,48.2525 25.6,48.2525 C30.4888,48.2525 34.466,44.2753 34.466,39.3865 L34.466,25.7051 C34.466,20.8165 30.4887,16.8392 25.6,16.8392 Z"/><polygon id="Path" points="24.1 22.402 27.1 22.402 27.1 26.405 24.1 26.405"/><polygon id="Path" points="0 24.205 7.028 24.205 7.028 27.205 0 27.205"/><polygon id="Path" points="44.277 24.205 51.305 24.205 51.305 27.205 44.277 27.205"/><polygon id="Path" points="2.966 35.274 9.993 35.274 9.993 38.274 2.966 38.274" transform="translate(6.479587, 36.773642) rotate(-30.000728) translate(-6.479587, -36.773642)"/><polygon id="Path" points="41.31 13.136 48.338 13.136 48.338 16.136 41.31 16.136" transform="translate(44.824217, 14.635764) rotate(-30.000728) translate(-44.824217, -14.635764)"/><polygon id="Path" points="33.208 5.033 40.235 5.033 40.235 8.033 33.208 8.033" transform="translate(36.721607, 6.533391) rotate(-59.999272) translate(-36.721607, -6.533391)"/><polygon id="Path" points="24.153 .053 27.153 .053 27.153 7.08 24.153 7.08"/><polygon id="Path" points="13.083 3.019 16.083 3.019 16.083 10.046 13.083 10.046" transform="translate(14.582888, 6.532395) rotate(-30.000728) translate(-14.582888, -6.532395)"/><polygon id="Path" points="43.324 33.261 46.324 33.261 46.324 40.289 43.324 40.289" transform="translate(44.824160, 36.775352) rotate(-59.999272) translate(-44.824160, -36.775352)"/><polygon id="Path" points="4.98 11.122 7.98 11.122 7.98 18.15 4.98 18.15" transform="translate(6.479646, 14.635845) rotate(-59.999272) translate(-6.479646, -14.635845)"/></g></g></g></svg>